<mxfile host="app.diagrams.net" modified="2020-10-21T02:31:04.497Z" agent="5.0 (Windows NT 10.0; Win64; x64) AppleWebKit/537.36 (KHTML, like Gecko) Chrome/86.0.4240.75 Safari/537.36" etag="yEJho3LK6jkwitzbaarn" version="13.8.1" type="github">
  <diagram id="YVxtChNPSDXd9bMHDPXW" name="Page-1">
    <mxGraphModel dx="549" dy="784" grid="1" gridSize="10" guides="1" tooltips="1" connect="1" arrows="1" fold="1" page="1" pageScale="1" pageWidth="827" pageHeight="1169" math="0" shadow="0">
      <root>
        <mxCell id="0" />
        <mxCell id="1" parent="0" />
        <mxCell id="dwQDwPdK_Mq-OzkKrwxO-1" value="Auditoria" style="rounded=0;whiteSpace=wrap;html=1;fillColor=#f8cecc;strokeColor=#b85450;" vertex="1" parent="1">
          <mxGeometry x="359" y="10" width="110" height="30" as="geometry" />
        </mxCell>
        <mxCell id="dwQDwPdK_Mq-OzkKrwxO-3" value="&lt;font face=&quot;arial&quot;&gt;&lt;span style=&quot;font-size: 10px&quot;&gt;&lt;b&gt;¿Por qué nació la Auditoría de Sistemas?&lt;/b&gt;&lt;/span&gt;&lt;/font&gt;" style="rounded=0;whiteSpace=wrap;html=1;fillColor=#d5e8d4;strokeColor=#82b366;" vertex="1" parent="1">
          <mxGeometry x="20" y="40" width="120" height="40" as="geometry" />
        </mxCell>
        <mxCell id="dwQDwPdK_Mq-OzkKrwxO-4" value="Etapas de la Auditoría" style="rounded=0;whiteSpace=wrap;html=1;fillColor=#d5e8d4;strokeColor=#82b366;" vertex="1" parent="1">
          <mxGeometry x="220" y="60" width="150" height="30" as="geometry" />
        </mxCell>
        <mxCell id="dwQDwPdK_Mq-OzkKrwxO-5" value="EJECUCIÓN O EXAMEN" style="rounded=0;whiteSpace=wrap;html=1;fillColor=#dae8fc;strokeColor=#6c8ebf;" vertex="1" parent="1">
          <mxGeometry x="120" y="110" width="150" height="20" as="geometry" />
        </mxCell>
        <mxCell id="dwQDwPdK_Mq-OzkKrwxO-6" value="COMUNICACIÓN DE RESULTADOS" style="rounded=0;whiteSpace=wrap;html=1;fillColor=#dae8fc;strokeColor=#6c8ebf;" vertex="1" parent="1">
          <mxGeometry x="280" y="110" width="210" height="20" as="geometry" />
        </mxCell>
        <mxCell id="dwQDwPdK_Mq-OzkKrwxO-7" value="PLANIFICACIÓN" style="rounded=0;whiteSpace=wrap;html=1;fillColor=#dae8fc;strokeColor=#6c8ebf;" vertex="1" parent="1">
          <mxGeometry x="220" y="140" width="120" height="20" as="geometry" />
        </mxCell>
        <mxCell id="dwQDwPdK_Mq-OzkKrwxO-9" value="Estructura de la Auditoría" style="rounded=0;whiteSpace=wrap;html=1;fillColor=#d5e8d4;strokeColor=#82b366;" vertex="1" parent="1">
          <mxGeometry x="450" y="60" width="160" height="30" as="geometry" />
        </mxCell>
        <mxCell id="dwQDwPdK_Mq-OzkKrwxO-10" value="Ejecución del programa y elaboración del Informe" style="rounded=0;whiteSpace=wrap;html=1;fillColor=#d5e8d4;strokeColor=#82b366;" vertex="1" parent="1">
          <mxGeometry x="570" y="140" width="230" height="40" as="geometry" />
        </mxCell>
        <mxCell id="dwQDwPdK_Mq-OzkKrwxO-11" value="La importancia de los papeles de trabajo" style="rounded=0;whiteSpace=wrap;html=1;fillColor=#d5e8d4;strokeColor=#82b366;" vertex="1" parent="1">
          <mxGeometry x="20" y="240" width="210" height="40" as="geometry" />
        </mxCell>
        <mxCell id="dwQDwPdK_Mq-OzkKrwxO-12" value="Gestión del Riesgo" style="rounded=0;whiteSpace=wrap;html=1;fillColor=#d5e8d4;strokeColor=#82b366;" vertex="1" parent="1">
          <mxGeometry x="320" y="240" width="120" height="30" as="geometry" />
        </mxCell>
        <mxCell id="dwQDwPdK_Mq-OzkKrwxO-13" value="Controles Específicos TI" style="rounded=0;whiteSpace=wrap;html=1;fillColor=#d5e8d4;strokeColor=#82b366;" vertex="1" parent="1">
          <mxGeometry x="660" y="240" width="140" height="30" as="geometry" />
        </mxCell>
        <mxCell id="dwQDwPdK_Mq-OzkKrwxO-14" value="Segregación de Funciones" style="rounded=0;whiteSpace=wrap;html=1;fillColor=#d5e8d4;strokeColor=#82b366;" vertex="1" parent="1">
          <mxGeometry x="20" y="360" width="150" height="30" as="geometry" />
        </mxCell>
        <mxCell id="dwQDwPdK_Mq-OzkKrwxO-15" value="Controles Compensatorios" style="rounded=0;whiteSpace=wrap;html=1;fillColor=#d5e8d4;strokeColor=#82b366;" vertex="1" parent="1">
          <mxGeometry x="300" y="360" width="150" height="30" as="geometry" />
        </mxCell>
        <mxCell id="dwQDwPdK_Mq-OzkKrwxO-16" value="Auditoría de Sistemas basada en riesgos" style="rounded=0;whiteSpace=wrap;html=1;fillColor=#d5e8d4;strokeColor=#82b366;" vertex="1" parent="1">
          <mxGeometry x="520" y="320" width="170" height="40" as="geometry" />
        </mxCell>
      </root>
    </mxGraphModel>
  </diagram>
</mxfile>
